{"asset":{"version":"2.0","generator":"THREE.GLTFExporter r166"},"scenes":[{"name":"AuxScene","nodes":[3]}],"scene":0,"nodes":[{"mesh":0},{"mesh":1},{"matrix":[0.25,0,0,0,0,-0.25,0,0,0,0,0.25,0,-53.06534504890442,53.063696205616,-2.5,1],"children":[0,1]},{"matrix":[0.9994494182244957,0,0.03317921654766778,0,0,1,0,0,-0.03317921654766778,0,0.9994494182244957,0,0,0,0,1],"children":[2]}],"bufferViews":[{"buffer":0,"byteOffset":0,"byteLength":611568,"target":34962,"byteStride":12},{"buffer":0,"byteOffset":611568,"byteLength":407712,"target":34962,"byteStride":8},{"buffer":0,"byteOffset":1019280,"byteLength":611568,"target":34962,"byteStride":12},{"buffer":0,"byteOffset":1630848,"byteLength":5040,"target":34962,"byteStride":12},{"buffer":0,"byteOffset":1635888,"byteLength":3360,"target":34962,"byteStride":8},{"buffer":0,"byteOffset":1639248,"byteLength":5040,"target":34962,"byteStride":12}],"buffers":[{"byteLength":1644288,"uri":"data:application/octet-stream;base64,"}],"accessors":[{"bufferView":0,"componentType":5126,"count":50964,"max":[397.2429504394531,425.6792907714844,37],"min":[27.279809951782227,-1.1697211265563965,-2],"type":"VEC3"},{"bufferView":1,"componentType":5126,"count":50964,"max":[412.31689453125,424.5090026855469],"min":[13.035028457641602,-36],"type":"VEC2"},{"bufferView":2,"componentType":5126,"count":50964,"max":[0.9999977946281433,0.9999508857727051,1],"min":[-0.9999997019767761,-0.9998511075973511,-1],"type":"VEC3"},{"bufferView":3,"componentType":5126,"count":420,"max":[235.27870178222656,232.1929931640625,37],"min":[189.2312774658203,192.3159942626953,-2],"type":"VEC3"},{"bufferView":4,"componentType":5126,"count":420,"max":[234.12399291992188,231.1929931640625],"min":[190.38600158691406,-36],"type":"VEC2"},{"bufferView":5,"componentType":5126,"count":420,"max":[0.8660341501235962,1,1],"min":[-0.8660143613815308,-1,-1],"type":"VEC3"}],"materials":[{"pbrMetallicRoughness":{"metallicFactor":1,"roughnessFactor":0.21},"doubleSided":true,"extensions":{"KHR_materials_clearcoat":{"clearcoatFactor":1,"clearcoatRoughnessFactor":0.1}}},{"pbrMetallicRoughness":{"metallicFactor":1,"roughnessFactor":0.21},"doubleSided":true,"extensions":{"KHR_materials_clearcoat":{"clearcoatFactor":1,"clearcoatRoughnessFactor":0.1}}}],"meshes":[{"primitives":[{"mode":4,"attributes":{"POSITION":0,"TEXCOORD_0":1,"NORMAL":2},"material":0}]},{"primitives":[{"mode":4,"attributes":{"POSITION":3,"TEXCOORD_0":4,"NORMAL":5},"material":1}]}],"extensionsUsed":["KHR_materials_clearcoat"]}