<svg width="750" height="780" viewBox="0 0 750 780" fill="none" xmlns="http://www.w3.org/2000/svg">
<path d="M358.5 24.5263C368.71 18.6314 381.29 18.6314 391.5 24.5263L683.26 192.974C693.47 198.869 699.76 209.763 699.76 221.553V558.447C699.76 570.237 693.47 581.131 683.26 587.026L391.5 755.474C381.29 761.369 368.71 761.369 358.5 755.474L66.7405 587.026C56.5302 581.131 50.2405 570.237 50.2405 558.447V221.553C50.2405 209.763 56.5302 198.869 66.7405 192.974L358.5 24.5263Z" stroke="#F2F2F2" stroke-width="39" stroke-linejoin="round"/>
<path d="M506.497 410.76C505.809 410.343 505.107 409.935 504.397 409.534C480.684 396.165 457.849 389.926 438.028 387.596C450.708 384.615 466.068 380.762 484.716 375.826C542.918 360.421 548.309 290.183 548.309 290.183C548.309 290.183 501.629 261.103 456.616 287.706C433.181 301.555 416.361 318.216 404.436 334.211C408.191 321.742 412.534 306.513 417.584 287.895C417.83 286.988 418.058 286.083 418.27 285.186C429.857 235.747 388.398 200.084 377.682 191.822C376.123 190.622 375.215 190 375.215 190C375.215 190 374.788 190.228 374.016 190.681C366.546 195.085 326.736 220.788 327.22 268.172C327.497 295.393 333.514 318.287 341.404 336.615C333.9 328.633 324.918 319.322 314.157 308.418C312.124 306.359 310.029 304.243 307.869 302.068C307.204 301.402 306.536 300.752 305.864 300.12C273.107 269.371 228.932 279.975 210.522 286.395C210.297 286.474 210.076 286.551 209.86 286.628C207.397 287.503 205.43 288.286 204.072 288.858C203.671 289.028 203.32 289.178 203.027 289.308C202.291 289.629 201.903 289.815 201.903 289.815C201.903 289.815 201.849 291.439 201.988 294.259C202.655 307.59 207.691 347.649 243.504 369.241C244.192 369.656 244.893 370.065 245.605 370.466C269.317 383.835 292.152 390.073 311.972 392.403C299.292 395.385 283.933 399.238 265.284 404.173C264.375 404.415 263.479 404.668 262.594 404.936C215.754 419.088 204.62 469.501 202.264 485.148C201.819 488.1 201.689 489.815 201.689 489.815C201.689 489.815 202.1 490.07 202.88 490.512C203.272 490.734 203.753 491 204.325 491.306C204.705 491.508 205.124 491.728 205.581 491.962C217.231 497.932 253.246 513.119 289.163 494.629C290.572 493.902 291.978 493.125 293.385 492.293C316.82 478.443 333.639 461.783 345.565 445.789C341.809 458.258 337.467 473.487 332.416 492.105C332.17 493.013 331.942 493.917 331.731 494.814C325.028 523.415 336.078 547.403 348.658 564.145C348.867 564.421 349.075 564.695 349.285 564.969C350.136 566.08 350.991 567.157 351.849 568.203C352.716 569.261 353.584 570.282 354.448 571.271C356.973 574.156 359.463 576.742 361.786 578.999C364.18 581.324 366.391 583.298 368.293 584.91C368.561 585.138 368.824 585.359 369.08 585.572C369.783 586.158 370.44 586.695 371.033 587.168C371.501 587.541 371.931 587.876 372.321 588.178C373.879 589.375 374.787 589.999 374.787 589.999C374.787 589.999 375.214 589.771 375.985 589.318C383.456 584.914 423.264 559.211 422.782 511.827C422.504 484.605 416.487 461.711 408.595 443.384C417.519 452.872 428.535 464.249 442.133 477.93C442.798 478.596 443.466 479.246 444.137 479.879C461.637 496.309 482.402 500.933 500.752 500.695C517.69 500.478 532.575 496.12 540.944 493.085C543.036 492.325 544.72 491.65 545.929 491.142C546.331 490.972 546.682 490.821 546.974 490.692C547.71 490.371 548.098 490.184 548.098 490.184C548.098 490.184 548.152 488.56 548.012 485.74C547.345 472.409 542.31 432.351 506.497 410.76ZM385.303 407.845H364.697L354.394 390L364.697 372.154H385.303L395.606 390L385.303 407.845Z" fill="#F2F2F2"/>
</svg>
